<?xml version="1.0" encoding="utf-8"?>
<!-- Generator: Adobe Illustrator 22.0.1, SVG Export Plug-In . SVG Version: 6.00 Build 0)  -->
<svg version="1.1" id="Слой_1" xmlns="http://www.w3.org/2000/svg" xmlns:xlink="http://www.w3.org/1999/xlink" x="0px" y="0px"
	 viewBox="0 0 195 66" style="enable-background:new 0 0 195 66;" xml:space="preserve">
<style type="text/css">
	.st0{fill:#EE1D49;}
	.st1{fill:#001600;}
</style>
<g id="Page-1">
	<g id="logo-top" transform="translate(0.000000, -1.000000)">
		<path id="Shape" class="st0" d="M9.7,28c0.1-3.6,3.8-5,7.8-5c2.3,0,4.6,0.5,6.8,1.4v6.1C20.4,34.5,9.5,35.1,9.7,28L9.7,28z
			 M70.5,32.9c0-10.9-6.7-19.8-17-19.8c-3.2,0-5.6,0.6-10.1,5L34.6,27v39.9l10.3-10.3v-5.7c2.1,1.4,4.5,2.1,7,2.1
			C63.6,53,70.5,43.7,70.5,32.9L70.5,32.9z M45,25c1.3-1.9,3.5-3,5.8-3c6,0,9.2,4.4,9.2,10.8c0,9.8-7.7,13.7-15,9.8L45,25L45,25z
			 M34.5,27V17c0-11.3-8.2-16-17.1-16C13.5,0.9,9.5,1.8,6,3.6v8.8c2.3-1.9,6.8-3.2,10.6-3.1s7.4,2.1,7.6,7.5
			c-2.4-0.9-4.9-1.4-7.4-1.5c-8.3-0.2-16.8,4.3-16.8,13c0,7.3,5.4,13.4,15.6,13.4c3.1,0,5-0.8,8.4-4.2L34.5,27L34.5,27z"/>
		<path id="Shape_1_" class="st1" d="M89.9,29c-1.4-1.6-3.5-2.4-5.6-2.4c-2.1,0-4.1,0.8-5.6,2.3s-2.3,3.5-2.2,5.6
			c-0.1,2.1,0.7,4.1,2.2,5.6s3.5,2.3,5.6,2.2c2.2,0.1,4.4-0.9,5.7-2.7l-2.9-2.4c-0.9,1-2.2,1.5-3.5,1.5c-2.2-0.1-3.9-2-3.8-4.2
			c0-2.9,2-4.4,4.1-4.3c1.3,0,2.6,0.5,3.7,1.3L89.9,29z M93.2,34.5c0-1.1,0.3-2.1,1.1-2.9c0.7-0.8,1.8-1.2,2.9-1.3
			c1.1,0,2.1,0.4,2.9,1.2s1.1,1.9,1,3c0.1,1.1-0.3,2.1-1,2.9c-0.7,0.8-1.8,1.2-2.8,1.3c-1.1,0-2.1-0.5-2.9-1.3
			C93.6,36.6,93.2,35.6,93.2,34.5z M105,34.5c0.1-2.9-1.4-5.6-3.8-7c-2.5-1.5-5.6-1.5-8,0s-4,4.2-3.8,7c0.2,4.2,3.6,7.6,7.9,7.6
			S104.8,38.7,105,34.5z M105.8,27v14.9h4v-11c2.4-1.6,5.8-0.4,5.8,2.6V42h4v-8.6c0.1-1.7-0.5-3.3-1.6-4.5s-2.7-1.9-4.4-2
			c-1.5-0.2-3,0.4-4,1.5l-0.6-1.3L105.8,27z M125.6,32.5c-0.5-0.1-1-0.6-1-1.1c0-0.9,1.1-1.4,1.8-1.4c1.1,0,2.1,0.4,2.9,1.1l2.1-2.2
			c-1.3-1.4-3.1-2.3-5-2.3c-2.9,0-5.6,1.6-5.6,4.7c0,2.9,2.6,4.4,5,4.8c0.8,0.2,1.9,0.3,1.9,1.4c0,0.8-1,1.4-1.8,1.3
			c-1.4-0.1-2.7-0.7-3.6-1.7l-2.1,2.3c1.3,1.8,3.4,2.9,5.7,2.9c2.5,0,5.8-1.3,5.8-4.8c0-3-2.7-4.4-5.3-4.8
			C126.2,32.6,125.9,32.6,125.6,32.5L125.6,32.5z M146.1,41.9V27h-4v11c-0.8,0.5-1.6,0.8-2.5,0.8c-0.9,0.1-1.7-0.2-2.3-0.8
			s-1-1.4-0.9-2.3V27h-4v8.8c-0.1,1.6,0.5,3.2,1.7,4.4c1.1,1.2,2.7,1.8,4.3,1.8c1.5,0.2,3-0.4,3.9-1.6l0.6,1.4L146.1,41.9
			L146.1,41.9z M153,38.7c-1.7,0.2-2.1-0.7-2.1-1.5V21.3l-4,4v11.8c0,4.1,2.7,5.4,6.1,4.8L153,38.7L153,38.7z M160.6,38.5
			c-1.7,0.2-2.7-0.5-2.7-1.5v-6.8h2.7V27h-2.7v-4.3l-3.9,0.4V27h-2.2v3.2h2.3v6.9c-0.1,4,3,5.4,6.6,4.8L160.6,38.5L160.6,38.5z"/>
	</g>
</g>
</svg>
