
<svg width="16px" height="16px" viewBox="0 0 16 16" version="1.1" xmlns="http://www.w3.org/2000/svg" xmlns:xlink="http://www.w3.org/1999/xlink">
    <g id="Page-1" stroke="none" stroke-width="1" fill="none" fill-rule="evenodd">
        <g id="search" fill="#EE1D49">
            <path d="M6.5,-2.22044605e-16 C10.0898509,1.39888101e-14 13,2.91014913 13,6.5 C13,10.0898509 10.0898509,13 6.5,13 C2.91014913,13 2.59537671e-16,10.0898509 2.59537671e-16,6.5 C-0.0026595593,4.77527887 0.681305817,3.12043273 1.90086927,1.90086927 C3.12043273,0.681305817 4.77527887,-0.0026595593 6.5,-2.22044605e-16 Z M11.64,12.786 L12.79,11.644 C12.8904668,11.5426253 13.0272751,11.4855966 13.17,11.4855966 C13.3127249,11.4855966 13.4495332,11.5426253 13.55,11.644 L15.83,13.929 C15.9309414,14.0299008 15.9876531,14.166776 15.9876531,14.3095 C15.9876531,14.452224 15.9309414,14.5890992 15.83,14.69 L14.69,15.832 C14.5895332,15.9333747 14.4527249,15.9904034 14.31,15.9904034 C14.1672751,15.9904034 14.0304668,15.9333747 13.93,15.832 L11.64,13.548 C11.4295667,13.3371944 11.4295667,12.9958056 11.64,12.785 L11.64,12.786 Z M6.5,2.5 C8.709139,2.5 10.5,4.290861 10.5,6.5 C10.5,8.709139 8.709139,10.5 6.5,10.5 C4.290861,10.5 2.5,8.709139 2.5,6.5 C2.5,4.290861 4.290861,2.5 6.5,2.5 Z"></path>
            <path d="M10.63,10.971 L10.97,10.631 C11.0600649,10.5406218 11.1824073,10.4898215 11.31,10.4898215 C11.4375927,10.4898215 11.5599351,10.5406218 11.65,10.631 L13.35,12.331 C13.4410655,12.4204937 13.4923598,12.5428205 13.4923598,12.6705 C13.4923598,12.7981795 13.4410655,12.9205063 13.35,13.01 L13.01,13.35 C12.8219577,13.5371347 12.5180423,13.5371347 12.33,13.35 L10.63,11.65 C10.5386235,11.5604697 10.4871306,11.4379271 10.4871306,11.31 C10.4871306,11.1820729 10.5386235,11.0595303 10.63,10.97 L10.63,10.971 Z" id="search-path"></path>
        </g>
    </g>
</svg>