<?xml version="1.0" encoding="UTF-8" standalone="no"?><svg width="55.117" height="63.607" xmlns="http://www.w3.org/2000/svg"><style><![CDATA[@import url("https://fonts.googleapis.com/css?family=IM+Fell+Great+Primer");]]></style><rect x="0" y="0" width="55.117" height="63.607" id="background" fill="#CCC5B8"/><g id="map" transform="translate(31.514 20.513)"><g fill="none"><polyline points="-18.232,2.892 -26.262,13.749 -35.756,19.894 -40.706,23.123 -44.279,25.486 -47.527,27.664 -50.453,29.658 -53.786,31.967 -57.527,34.589 -62.814,38.34 -73.066,45.655" stroke="#67635C" stroke-width="2.031" stroke-linejoin="round" stroke-linecap="butt"/><polyline points="-18.232,2.892 -26.262,13.749 -35.756,19.894 -40.706,23.123 -44.279,25.486 -47.527,27.664 -50.453,29.658 -53.786,31.967 -57.527,34.589 -62.814,38.34 -73.066,45.655" stroke="#CCC5B8" stroke-width="1.969" stroke-linejoin="round" stroke-linecap="round"/></g><g fill="none"><polyline points="4.27,-1.251 9.262,1.83 19.669,14.821 28.859,17.492 33.493,18.526 36.633,18.812 39.301,18.647 41.497,18.031 43.561,17.064 45.493,15.745 47.294,14.074 48.963,12.051 50.696,10.143 52.494,8.35 54.356,6.67 56.282,5.106 58.273,3.656 60.328,2.321 62.447,1.1 64.631,-0.007 67.283,-0.734 70.402,-1.084 73.989,-1.054 78.044,-0.646 83.307,0.381 89.779,2.026 99.682,5.012 119.682,11.5" stroke="#67635C" stroke-width="2.031" stroke-linejoin="round" stroke-linecap="butt"/><polyline points="4.27,-1.251 9.262,1.83 19.669,14.821 28.859,17.492 33.493,18.526 36.633,18.812 39.301,18.647 41.497,18.031 43.561,17.064 45.493,15.745 47.294,14.074 48.963,12.051 50.696,10.143 52.494,8.35 54.356,6.67 56.282,5.106 58.273,3.656 60.328,2.321 62.447,1.1 64.631,-0.007 67.283,-0.734 70.402,-1.084 73.989,-1.054 78.044,-0.646 83.307,0.381 89.779,2.026 99.682,5.012 119.682,11.5" stroke="#CCC5B8" stroke-width="1.969" stroke-linejoin="round" stroke-linecap="round"/></g><g fill="#99948A" stroke="#1A1917" stroke-width="0.031"><polygon points="-5.559,3.656 -6.082,4.919 -7.345,5.442 -8.608,4.919 -9.13,3.656 -8.608,2.393 -7.345,1.871 -6.082,2.393"/></g><g fill="#99948A" stroke="#1A1917" stroke-width="0.031"><polygon points="12.475,13.53 9.304,13.287 9.561,9.921 12.733,10.163"/><polygon points="8.513,13.167 2.254,12.688 2.837,5.074 9.096,5.553"/><polygon points="-4.02,9.56 -1.559,6.933 1.438,9.74 -1.022,12.367"/></g><g fill="#99948A" stroke="#1A1917" stroke-width="0.031"><polygon points="-22.229,-10.938 -18.604,-12.018 -15.684,-12.888 -12.391,-13.869 -9.208,-14.817 -8.191,-11.402 -6.812,-6.774 -5.871,-3.616 -9.054,-2.668 -12.347,-1.687 -15.267,-0.817 -18.892,0.263 -19.832,-2.895 -21.211,-7.524"/></g><g fill="#99948A" stroke="#1A1917" stroke-width="0.031"><polygon points="-10.788,13.297 -13.885,15.859 -16.563,12.621 -13.466,10.059"/></g><g fill="#99948A" stroke="#1A1917" stroke-width="0.031"><polygon points="1.297,-6.008 3.288,-7.195 4.943,-4.419 2.953,-3.232"/></g><g fill="#99948A" stroke="#1A1917" stroke-width="0.031"><polygon points="-7.728,17.686 -8.125,14.384 -4.338,13.93 -3.941,17.232"/></g><g stroke="#67635C" stroke-width="0.031" stroke-linecap="butt"><line x1="10.134" y1="-9.926" x2="10.495" y2="-9.204"/><line x1="11.054" y1="-10.654" x2="12.137" y2="-8.488"/><line x1="11.974" y1="-11.383" x2="13.778" y2="-7.773"/><line x1="12.96" y1="-11.977" x2="15.419" y2="-7.057"/><line x1="13.987" y1="-12.491" x2="16.92" y2="-6.624"/><line x1="15.015" y1="-13.004" x2="18.263" y2="-6.505"/><line x1="16.042" y1="-13.517" x2="19.566" y2="-6.466"/><line x1="17.069" y1="-14.031" x2="20.812" y2="-6.541"/><line x1="18.096" y1="-14.544" x2="22.058" y2="-6.616"/><line x1="19.123" y1="-15.057" x2="23.304" y2="-6.691"/><line x1="20.15" y1="-15.571" x2="24.551" y2="-6.766"/><line x1="21.177" y1="-16.084" x2="25.797" y2="-6.84"/><line x1="22.204" y1="-16.597" x2="27.043" y2="-6.915"/><line x1="23.231" y1="-17.111" x2="28.29" y2="-6.99"/><line x1="24.259" y1="-17.624" x2="29.536" y2="-7.065"/><line x1="25.286" y1="-18.137" x2="30.782" y2="-7.14"/><line x1="26.313" y1="-18.651" x2="32.029" y2="-7.214"/><line x1="27.34" y1="-19.164" x2="33.275" y2="-7.289"/><line x1="28.367" y1="-19.677" x2="34.521" y2="-7.364"/><line x1="29.394" y1="-20.191" x2="35.454" y2="-8.065"/><line x1="30.421" y1="-20.704" x2="36.374" y2="-8.793"/><line x1="31.448" y1="-21.217" x2="37.263" y2="-9.583"/><line x1="32.475" y1="-21.731" x2="37.799" y2="-11.08"/><line x1="33.503" y1="-22.244" x2="38.334" y2="-12.578"/><line x1="34.53" y1="-22.758" x2="38.869" y2="-14.075"/><line x1="35.557" y1="-23.271" x2="39.404" y2="-15.573"/><line x1="36.584" y1="-23.784" x2="39.94" y2="-17.07"/><line x1="37.611" y1="-24.298" x2="40.475" y2="-18.567"/><line x1="38.638" y1="-24.811" x2="41.01" y2="-20.065"/><line x1="39.665" y1="-25.324" x2="41.545" y2="-21.562"/><line x1="40.869" y1="-25.484" x2="42.081" y2="-23.06"/><line x1="42.212" y1="-25.365" x2="42.616" y2="-24.557"/><g fill="#99948A" stroke="#1A1917" stroke-width="0.031"><polygon points="37.882,-24.433 41.664,-26.323 42.618,-24.414 38.837,-22.524"/></g></g><g stroke="#67635C" stroke-width="0.031" stroke-linecap="butt"><line x1="47.552" y1="5.591" x2="48.528" y2="2.234"/><line x1="45.117" y1="8.542" x2="47.245" y2="1.221"/><line x1="42.682" y1="11.493" x2="45.92" y2="0.355"/><line x1="40.363" y1="14.048" x2="44.596" y2="-0.512"/><line x1="38.65" y1="14.516" x2="43.271" y2="-1.379"/><line x1="37.087" y1="14.469" x2="41.946" y2="-2.246"/><line x1="35.633" y1="14.046" x2="40.621" y2="-3.113"/><line x1="34.179" y1="13.624" x2="39.296" y2="-3.979"/><line x1="32.725" y1="13.201" x2="37.939" y2="-4.736"/><line x1="31.271" y1="12.778" x2="36.458" y2="-5.065"/><line x1="29.817" y1="12.356" x2="34.975" y2="-5.388"/><line x1="28.363" y1="11.933" x2="33.371" y2="-5.291"/><line x1="26.909" y1="11.51" x2="31.766" y2="-5.195"/><line x1="25.455" y1="11.087" x2="30.161" y2="-5.099"/><line x1="24.033" y1="10.555" x2="28.556" y2="-5.002"/><line x1="22.698" y1="9.723" x2="26.951" y2="-4.906"/><line x1="21.422" y1="8.691" x2="25.347" y2="-4.81"/><line x1="20.265" y1="7.247" x2="23.742" y2="-4.713"/><line x1="19.108" y1="5.803" x2="22.137" y2="-4.617"/><line x1="17.951" y1="4.358" x2="20.532" y2="-4.521"/><line x1="16.794" y1="2.914" x2="18.911" y2="-4.369"/><line x1="15.637" y1="1.47" x2="17.239" y2="-4.041"/><line x1="14.51" y1="-0.078" x2="15.152" y2="-2.284"/><g fill="#99948A" stroke="#1A1917" stroke-width="0.031"><polygon points="22.646,-4.648 23.349,-4.69 25.058,-4.792 25.132,-3.575 23.422,-3.472 23.474,-2.603 22.771,-2.561 20.826,-2.444 20.773,-3.313 22.719,-3.43"/></g></g><g stroke="#67635C" stroke-width="0.031" stroke-linecap="butt"><line x1="-7.33" y1="50.091" x2="4.584" y2="57.527"/><line x1="-7.245" y1="48.249" x2="6.279" y2="56.689"/><line x1="-6.393" y1="46.885" x2="7.802" y2="55.744"/><line x1="-5.542" y1="45.52" x2="9.325" y2="54.799"/><line x1="-4.691" y1="44.156" x2="10.848" y2="53.854"/><line x1="-3.839" y1="42.792" x2="12.052" y2="52.71"/><line x1="-2.988" y1="41.428" x2="12.436" y2="51.054"/><line x1="-2.136" y1="40.064" x2="11.924" y2="48.839"/><line x1="-1.285" y1="38.699" x2="11.392" y2="46.611"/><line x1="-0.434" y1="37.335" x2="10.86" y2="44.383"/><line x1="0.418" y1="35.971" x2="10.328" y2="42.156"/><line x1="1.269" y1="34.607" x2="9.796" y2="39.928"/><line x1="2.568" y1="33.522" x2="9.07" y2="37.58"/><line x1="-10.463" y1="48.343" x2="-0.13" y2="31.787"/><line x1="-11.95" y1="48.155" x2="-1.04" y2="30.674"/><line x1="-13.105" y1="47.435" x2="-2.214" y2="29.985"/><line x1="-14.259" y1="46.714" x2="-3.388" y2="29.296"/><line x1="-15.414" y1="45.994" x2="-4.562" y2="28.607"/><line x1="-16.568" y1="45.273" x2="-5.737" y2="27.918"/><line x1="-17.707" y1="44.529" x2="-7.311" y2="27.87"/><line x1="-18.219" y1="42.779" x2="-10.353" y2="30.175"/><line x1="-17.282" y1="38.707" x2="-14.039" y2="33.51"/><g fill="#99948A" stroke="#1A1917" stroke-width="0.031"><polygon points="-2.798,37.346 -3.764,38.894 -4.925,40.755 -5.935,40.124 -7.049,39.429 -5.887,37.568 -4.773,38.263 -3.808,36.716"/></g></g><g stroke="#67635C" stroke-width="0.031" stroke-linecap="butt"><line x1="14.168" y1="29.027" x2="11.468" y2="38.316"/><line x1="18.3" y1="21.256" x2="12.355" y2="41.703"/><line x1="20.397" y1="20.481" x2="14.058" y2="42.284"/><line x1="22.132" y1="20.952" x2="15.877" y2="42.47"/><line x1="23.859" y1="21.454" x2="17.723" y2="42.56"/><line x1="25.585" y1="21.956" x2="19.569" y2="42.65"/><line x1="27.311" y1="22.458" x2="21.415" y2="42.74"/><line x1="29.038" y1="22.959" x2="23.261" y2="42.83"/><line x1="30.764" y1="23.461" x2="25.107" y2="42.92"/><line x1="32.49" y1="23.963" x2="26.953" y2="43.01"/><line x1="34.216" y1="24.465" x2="28.799" y2="43.1"/><line x1="35.943" y1="24.967" x2="30.763" y2="42.785"/><line x1="37.386" y1="26.441" x2="33.787" y2="38.822"/><line x1="30.807" y1="45.916" x2="13.22" y2="45.059"/><line x1="30.607" y1="47.338" x2="13.422" y2="46.501"/><line x1="30.082" y1="48.744" x2="13.768" y2="47.949"/><line x1="29.556" y1="50.15" x2="14.114" y2="49.398"/><line x1="29.031" y1="51.557" x2="14.46" y2="50.847"/><line x1="28.399" y1="52.958" x2="16.404" y2="52.373"/><g fill="#99948A" stroke="#1A1917" stroke-width="0.031"><polygon points="20.121,20.367 21.464,20.758 23.076,21.226 22.739,22.387 24.375,22.862 24.003,24.143 22.367,23.667 20.754,23.198 21.126,21.918 19.783,21.528"/></g></g><g stroke="#67635C" stroke-width="0.031" stroke-linecap="butt"><line x1="-42.877" y1="32.458" x2="-39.519" y2="37.646"/><line x1="-42.481" y1="30.447" x2="-32.408" y2="46.01"/><line x1="-41.287" y1="29.668" x2="-29.302" y2="48.186"/><line x1="-40.091" y1="28.894" x2="-27.929" y2="47.684"/><line x1="-38.895" y1="28.119" x2="-26.657" y2="47.027"/><line x1="-37.698" y1="27.345" x2="-25.385" y2="46.369"/><line x1="-36.502" y1="26.571" x2="-24.113" y2="45.712"/><line x1="-35.305" y1="25.796" x2="-22.841" y2="45.054"/><line x1="-34.109" y1="25.022" x2="-21.569" y2="44.397"/><line x1="-32.912" y1="24.248" x2="-20.58" y2="43.302"/><line x1="-31.716" y1="23.473" x2="-19.996" y2="41.581"/><line x1="-30.519" y1="22.699" x2="-19.551" y2="39.647"/><line x1="-29.323" y1="21.925" x2="-19.105" y2="37.712"/><line x1="-28.127" y1="21.15" x2="-18.768" y2="35.611"/><line x1="-26.93" y1="20.376" x2="-19.171" y2="32.364"/><line x1="-25.681" y1="19.683" x2="-19.987" y2="28.481"/><line x1="-24.327" y1="19.151" x2="-20.802" y2="24.599"/></g><g stroke="#67635C" stroke-width="0.031" stroke-linecap="butt"><line x1="-40.527" y1="-4.11" x2="-36.117" y2="-16.25"/><line x1="-42.113" y1="-4.593" x2="-37.511" y2="-17.261"/><line x1="-43.695" y1="-5.087" x2="-39.131" y2="-17.65"/><line x1="-45.257" y1="-5.636" x2="-40.751" y2="-18.039"/><line x1="-46.813" y1="-6.201" x2="-42.371" y2="-18.428"/><line x1="-48.369" y1="-6.767" x2="-43.991" y2="-18.817"/><line x1="-49.925" y1="-7.332" x2="-45.611" y2="-19.206"/><line x1="-51.481" y1="-7.897" x2="-47.231" y2="-19.595"/><line x1="-53.037" y1="-8.463" x2="-48.851" y2="-19.984"/><line x1="-54.463" y1="-9.384" x2="-50.722" y2="-19.68"/><line x1="-42.775" y1="-39.968" x2="-49.224" y2="-23.247"/><line x1="-41.307" y1="-39.647" x2="-48.163" y2="-21.875"/><line x1="-40.102" y1="-38.646" x2="-46.706" y2="-21.526"/><line x1="-38.897" y1="-37.645" x2="-45.25" y2="-21.176"/><line x1="-37.693" y1="-36.644" x2="-43.794" y2="-20.826"/><line x1="-36.488" y1="-35.643" x2="-42.338" y2="-20.477"/><line x1="-35.283" y1="-34.642" x2="-40.881" y2="-20.127"/><line x1="-34.129" y1="-33.507" x2="-39.425" y2="-19.777"/><line x1="-33.14" y1="-31.946" x2="-37.969" y2="-19.428"/><line x1="-32.345" y1="-29.882" x2="-36.513" y2="-19.078"/><line x1="-31.55" y1="-27.818" x2="-34.883" y2="-19.177"/><line x1="-29.297" y1="-21.967" x2="-31.124" y2="-21.303"/><line x1="-28.766" y1="-20.591" x2="-31.829" y2="-19.477"/><line x1="-28.236" y1="-19.214" x2="-32.533" y2="-17.651"/><line x1="-27.706" y1="-17.837" x2="-33.237" y2="-15.825"/><line x1="-27.175" y1="-16.46" x2="-33.941" y2="-14"/><line x1="-26.645" y1="-15.083" x2="-34.646" y2="-12.174"/><line x1="-26.115" y1="-13.707" x2="-35.35" y2="-10.348"/><line x1="-25.584" y1="-12.33" x2="-36.054" y2="-8.522"/><line x1="-25.071" y1="-10.947" x2="-36.758" y2="-6.697"/><line x1="-24.567" y1="-9.561" x2="-37.1" y2="-5.003"/><line x1="-24.086" y1="-8.166" x2="-36.595" y2="-3.617"/><line x1="-23.61" y1="-6.769" x2="-35.301" y2="-2.518"/><line x1="-23.135" y1="-5.373" x2="-32.953" y2="-1.802"/><line x1="-22.659" y1="-3.976" x2="-30.604" y2="-1.087"/><line x1="-22.184" y1="-2.579" x2="-28.255" y2="-0.371"/><line x1="-21.709" y1="-1.182" x2="-25.907" y2="0.344"/><line x1="-21.233" y1="0.214" x2="-23.558" y2="1.06"/></g><g stroke="#67635C" stroke-width="0.031" stroke-linecap="butt"><line x1="-58.756" y1="4.26" x2="-50.508" y2="21.093"/><line x1="-58.238" y1="2.534" x2="-49.131" y2="21.12"/><line x1="-57.097" y1="2.08" x2="-47.754" y2="21.148"/><line x1="-55.956" y1="1.627" x2="-46.601" y2="20.719"/><line x1="-54.815" y1="1.173" x2="-45.566" y2="20.049"/><line x1="-53.674" y1="0.719" x2="-44.531" y2="19.379"/><line x1="-52.533" y1="0.265" x2="-43.496" y2="18.709"/><line x1="-51.392" y1="-0.189" x2="-42.46" y2="18.039"/><line x1="-50.251" y1="-0.643" x2="-41.425" y2="17.369"/><line x1="-49.109" y1="-1.097" x2="-40.39" y2="16.699"/><line x1="-47.968" y1="-1.551" x2="-39.355" y2="16.029"/><line x1="-46.827" y1="-2.005" x2="-38.32" y2="15.359"/><line x1="-45.686" y1="-2.458" x2="-37.284" y2="14.689"/><line x1="-44.314" y1="-2.441" x2="-36.249" y2="14.019"/><line x1="-42.937" y1="-2.414" x2="-35.214" y2="13.349"/><line x1="-41.53" y1="-2.325" x2="-34.179" y2="12.679"/><line x1="-39.928" y1="-1.836" x2="-33.144" y2="12.009"/><line x1="-38.325" y1="-1.348" x2="-32.109" y2="11.339"/><line x1="-36.722" y1="-0.86" x2="-31.073" y2="10.669"/><line x1="-35.12" y1="-0.372" x2="-30.038" y2="9.999"/><line x1="-33.517" y1="0.117" x2="-29.003" y2="9.329"/><line x1="-31.914" y1="0.605" x2="-27.968" y2="8.659"/><line x1="-30.312" y1="1.093" x2="-26.933" y2="7.989"/><line x1="-28.709" y1="1.581" x2="-25.897" y2="7.319"/><line x1="-27.106" y1="2.07" x2="-24.862" y2="6.649"/><line x1="-25.504" y1="2.558" x2="-23.827" y2="5.979"/><line x1="-23.901" y1="3.046" x2="-23.321" y2="4.231"/><g fill="#99948A" stroke="#1A1917" stroke-width="0.031"><polygon points="-42.749,18.226 -43.878,18.957 -45.099,19.746 -46.266,20.502 -47.111,19.196 -45.944,18.441 -46.359,17.8 -45.138,17.01 -44.723,17.651 -43.594,16.92"/></g></g><g stroke="#67635C" stroke-width="0.031" stroke-linecap="butt"><line x1="48.114" y1="22.919" x2="62.775" y2="31.42"/><line x1="48.233" y1="21.106" x2="64.086" y2="30.299"/><line x1="49.284" y1="19.833" x2="64.685" y2="28.764"/><line x1="50.334" y1="18.56" x2="65.024" y2="27.079"/><line x1="51.384" y1="17.287" x2="65.364" y2="25.393"/><line x1="52.435" y1="16.014" x2="65.703" y2="23.708"/><line x1="53.485" y1="14.741" x2="66.042" y2="22.023"/><line x1="54.535" y1="13.468" x2="66.381" y2="20.337"/><line x1="55.585" y1="12.196" x2="66.72" y2="18.652"/><line x1="56.636" y1="10.923" x2="67.059" y2="16.967"/><line x1="57.862" y1="9.752" x2="67.398" y2="15.281"/><line x1="59.173" y1="8.63" x2="67.738" y2="13.596"/><line x1="60.866" y1="7.73" x2="68.077" y2="11.911"/><line x1="62.599" y1="6.852" x2="68.416" y2="10.225"/><line x1="64.331" y1="5.975" x2="68.755" y2="8.54"/><line x1="66.063" y1="5.097" x2="69.094" y2="6.855"/><line x1="67.795" y1="4.22" x2="68.923" y2="4.874"/><g fill="#99948A" stroke="#1A1917" stroke-width="0.031"><polygon points="67.889,12.842 67.066,16.933 65.088,16.535 65.912,12.444"/></g></g><g stroke="#67635C" stroke-width="0.031" stroke-linecap="butt"><line x1="45.784" y1="-25.365" x2="39.416" y2="-7.548"/><line x1="47.501" y1="-25.937" x2="40.277" y2="-5.728"/><line x1="48.998" y1="-25.898" x2="41.502" y2="-4.926"/><line x1="50.339" y1="-25.419" x2="42.728" y2="-4.125"/><line x1="51.679" y1="-24.94" x2="43.953" y2="-3.323"/><line x1="53.02" y1="-24.461" x2="45.178" y2="-2.521"/><line x1="54.361" y1="-23.982" x2="46.403" y2="-1.72"/><line x1="55.701" y1="-23.502" x2="47.629" y2="-0.918"/><line x1="57.042" y1="-23.023" x2="48.854" y2="-0.116"/><line x1="58.382" y1="-22.544" x2="50.213" y2="0.311"/><line x1="59.723" y1="-22.065" x2="51.763" y2="0.203"/><line x1="61.063" y1="-21.586" x2="53.4" y2="-0.146"/><line x1="62.404" y1="-21.107" x2="55.246" y2="-1.081"/><line x1="63.744" y1="-20.627" x2="57.092" y2="-2.016"/><line x1="65.085" y1="-20.148" x2="58.938" y2="-2.952"/><line x1="66.425" y1="-19.669" x2="60.784" y2="-3.887"/><line x1="67.766" y1="-19.19" x2="62.63" y2="-4.822"/><line x1="69.076" y1="-18.626" x2="64.476" y2="-5.757"/><line x1="70.286" y1="-17.783" x2="66.322" y2="-6.693"/><line x1="71.358" y1="-16.551" x2="68.168" y2="-7.628"/><line x1="71.329" y1="-12.242" x2="70.184" y2="-9.039"/><line x1="48.156" y1="-29.136" x2="71.03" y2="-20.96"/><line x1="49.061" y1="-30.438" x2="71.396" y2="-22.455"/><line x1="50.707" y1="-31.476" x2="71.407" y2="-24.077"/><line x1="52.352" y1="-32.514" x2="71.418" y2="-25.699"/><line x1="53.998" y1="-33.551" x2="71.428" y2="-27.321"/><line x1="55.643" y1="-34.589" x2="70.984" y2="-29.105"/><line x1="57.508" y1="-35.548" x2="64.711" y2="-32.974"/><g fill="#99948A" stroke="#1A1917" stroke-width="0.031"><polygon points="53.682,-24.224 55.092,-23.72 57.003,-23.037 56.482,-21.58 57.785,-21.114 57.422,-20.096 56.118,-20.562 54.207,-21.245 52.797,-21.749 53.161,-22.767"/></g></g><g stroke="#67635C" stroke-width="0.031" stroke-linecap="butt"><line x1="31.75" y1="49.994" x2="30.647" y2="55.001"/><line x1="33.374" y1="48.174" x2="31.448" y2="56.917"/><line x1="34.594" y1="48.19" x2="32.367" y2="58.303"/><line x1="35.813" y1="48.206" x2="33.285" y2="59.688"/><line x1="36.999" y1="48.379" x2="34.203" y2="61.073"/><line x1="38.165" y1="48.636" x2="35.121" y2="62.459"/><line x1="39.332" y1="48.893" x2="36.04" y2="63.844"/><line x1="40.499" y1="49.15" x2="36.958" y2="65.229"/><line x1="41.665" y1="49.406" x2="37.876" y2="66.614"/><line x1="42.832" y1="49.663" x2="38.794" y2="68"/><line x1="43.999" y1="49.92" x2="39.713" y2="69.385"/><line x1="45.166" y1="50.177" x2="40.631" y2="70.77"/><line x1="46.332" y1="50.434" x2="41.549" y2="72.155"/><line x1="47.499" y1="50.691" x2="42.583" y2="73.013"/><line x1="48.666" y1="50.948" x2="43.637" y2="73.786"/><line x1="49.832" y1="51.205" x2="44.763" y2="74.226"/><line x1="50.999" y1="51.462" x2="45.999" y2="74.17"/><line x1="52.166" y1="51.719" x2="47.234" y2="74.113"/><line x1="53.333" y1="51.976" x2="48.47" y2="74.057"/><line x1="54.499" y1="52.233" x2="49.706" y2="74"/><line x1="55.666" y1="52.49" x2="50.942" y2="73.944"/><line x1="56.833" y1="52.746" x2="52.177" y2="73.887"/><line x1="57.999" y1="53.003" x2="53.413" y2="73.831"/><line x1="59.166" y1="53.26" x2="54.652" y2="73.76"/><line x1="60.333" y1="53.517" x2="55.972" y2="73.319"/><line x1="61.5" y1="53.774" x2="57.362" y2="72.562"/><line x1="62.666" y1="54.031" x2="58.842" y2="71.397"/><line x1="63.833" y1="54.288" x2="60.322" y2="70.232"/><line x1="64.961" y1="54.723" x2="61.802" y2="69.067"/><line x1="66.035" y1="55.401" x2="63.282" y2="67.902"/><line x1="67.109" y1="56.079" x2="65.765" y2="62.182"/><line x1="52.333" y1="48.461" x2="57.994" y2="33.302"/><line x1="50.628" y1="49.332" x2="57.29" y2="31.493"/><line x1="49.352" y1="49.051" x2="56.156" y2="30.835"/><line x1="48.077" y1="48.77" x2="55.021" y2="30.177"/><line x1="46.802" y1="48.49" x2="53.887" y2="29.519"/><line x1="45.527" y1="48.209" x2="52.752" y2="28.862"/><line x1="44.252" y1="47.928" x2="51.618" y2="28.204"/><line x1="42.977" y1="47.647" x2="50.484" y2="27.546"/><line x1="41.701" y1="47.366" x2="49.349" y2="26.888"/><line x1="40.426" y1="47.086" x2="48.215" y2="26.23"/><line x1="39.151" y1="46.805" x2="47.08" y2="25.573"/><line x1="37.876" y1="46.524" x2="45.946" y2="24.915"/><line x1="36.601" y1="46.243" x2="44.812" y2="24.257"/><line x1="35.325" y1="45.962" x2="43.677" y2="23.599"/><line x1="34.621" y1="44.153" x2="41.972" y2="24.47"/><line x1="55.589" y1="49.652" x2="60.63" y2="51.535"/><line x1="55.293" y1="48.1" x2="67.766" y2="52.759"/><line x1="55.765" y1="46.835" x2="69.142" y2="51.831"/><line x1="56.237" y1="45.571" x2="69.561" y2="50.547"/><line x1="56.71" y1="44.306" x2="69.981" y2="49.262"/><line x1="57.182" y1="43.041" x2="70.4" y2="47.977"/><line x1="57.654" y1="41.776" x2="70.819" y2="46.693"/><line x1="58.127" y1="40.512" x2="71.238" y2="45.408"/><line x1="58.599" y1="39.247" x2="71.657" y2="44.124"/><line x1="59.071" y1="37.982" x2="71.77" y2="42.725"/><line x1="59.544" y1="36.717" x2="70.672" y2="40.873"/><line x1="60.016" y1="35.453" x2="67.457" y2="38.231"/><line x1="60.698" y1="34.266" x2="64.142" y2="35.552"/></g><g stroke="#67635C" stroke-width="0.031" stroke-linecap="butt"><line x1="10.771" y1="78.248" x2="28.994" y2="91.436"/><line x1="10.533" y1="76.589" x2="30.875" y2="91.31"/><line x1="10.51" y1="75.086" x2="31.799" y2="90.493"/><line x1="11.216" y1="74.111" x2="32.439" y2="89.469"/><line x1="11.922" y1="73.135" x2="33.079" y2="88.445"/><line x1="12.628" y1="72.159" x2="33.719" y2="87.422"/><line x1="13.335" y1="71.184" x2="34.359" y2="86.398"/><line x1="14.041" y1="70.208" x2="34.999" y2="85.375"/><line x1="14.747" y1="69.232" x2="35.639" y2="84.351"/><line x1="15.453" y1="68.256" x2="36.279" y2="83.328"/><line x1="16.159" y1="67.281" x2="36.919" y2="82.304"/><line x1="16.865" y1="66.305" x2="37.558" y2="81.28"/><line x1="17.571" y1="65.329" x2="38.198" y2="80.257"/><line x1="18.277" y1="64.354" x2="38.838" y2="79.233"/><line x1="18.983" y1="63.378" x2="39.478" y2="78.21"/><line x1="19.689" y1="62.402" x2="40.118" y2="77.186"/><line x1="20.395" y1="61.427" x2="40.086" y2="75.676"/><line x1="21.101" y1="60.451" x2="40.007" y2="74.132"/><line x1="21.808" y1="59.475" x2="38.984" y2="71.905"/><line x1="22.514" y1="58.5" x2="37.09" y2="69.048"/><line x1="23.226" y1="57.528" x2="35.196" y2="66.19"/><line x1="24.036" y1="56.628" x2="33.302" y2="63.333"/><line x1="24.846" y1="55.727" x2="31.408" y2="60.476"/><line x1="26.718" y1="55.595" x2="29.466" y2="57.584"/><line x1="7.009" y1="75.454" x2="21.567" y2="55.337"/><line x1="5.617" y1="75.262" x2="20.385" y2="54.853"/><line x1="4.611" y1="74.534" x2="18.973" y2="54.688"/><line x1="3.606" y1="73.806" x2="17.561" y2="54.523"/><line x1="2.6" y1="73.079" x2="16.148" y2="54.357"/><line x1="1.595" y1="72.351" x2="14.632" y2="54.335"/><line x1="0.956" y1="71.116" x2="12.476" y2="55.198"/><line x1="1.803" y1="67.829" x2="9.695" y2="56.924"/><line x1="3.512" y1="63.349" x2="6.914" y2="58.649"/><g fill="#99948A" stroke="#1A1917" stroke-width="0.031"><polygon points="19.737,58.924 18.405,60.765 17.288,62.309 15.929,61.326 14.858,60.551 15.975,59.006 17.307,57.166 18.379,57.941"/></g></g><g id="markers" pinned="true"/></g><g id="compass" transform="translate(55.117 63.607) scale(0.057 0.057) translate(-90 -90) rotate(0 0 0)"><circle cx="0" cy="0" r="65.515" stroke="#1A1917" stroke-width="0.533" fill="none"/><polygon points="27.118,27.118 0,9.517 0,0" fill="#1A1917"/><polygon points="0,9.517 -27.118,27.118 0,0" fill="#CCC5B8"/><polygon points="-27.118,27.118 -9.517,0 0,0" fill="#1A1917"/><polygon points="-9.517,0 -27.118,-27.118 0,0" fill="#CCC5B8"/><polygon points="-27.118,-27.118 0,-9.517 0,0" fill="#1A1917"/><polygon points="0,-9.517 27.118,-27.118 0,0" fill="#CCC5B8"/><polygon points="27.118,-27.118 9.517,0 0,0" fill="#1A1917"/><polygon points="9.517,0 27.118,27.118 0,0" fill="#CCC5B8"/><polygon points="27.118,27.118 0,9.517 -27.118,27.118 -9.517,0 -27.118,-27.118 0,-9.517 27.118,-27.118 9.517,0" fill="none" stroke="#1A1917" stroke-width="0.533" stroke-linejoin="round"/><polygon points="80,0 7.811,7.811 0,0" fill="#1A1917"/><polygon points="7.811,7.811 0,80 0,0" fill="#CCC5B8"/><polygon points="0,80 -7.811,7.811 0,0" fill="#1A1917"/><polygon points="-7.811,7.811 -80,0 0,0" fill="#CCC5B8"/><polygon points="-80,0 -7.811,-7.811 0,0" fill="#1A1917"/><polygon points="-7.811,-7.811 0,-80 0,0" fill="#CCC5B8"/><polygon points="0,-80 7.811,-7.811 0,0" fill="#1A1917"/><polygon points="7.811,-7.811 80,0 0,0" fill="#CCC5B8"/><polygon points="80,0 7.811,7.811 0,80 -7.811,7.811 -80,0 -7.811,-7.811 0,-80 7.811,-7.811" fill="none" stroke="#1A1917" stroke-width="0.533" stroke-linejoin="round"/><text text-anchor="middle" dominant-baseline="baseline" style="font: 27px IM Fell Great Primer, serif" fill="#1A1917" x="0" y="-85.4" transform="rotate(0 0 0)">N</text></g></svg>